<svg width="25" height="20" viewBox="0 0 25 20" fill="none" xmlns="http://www.w3.org/2000/svg">
<circle cx="13" cy="10" r="10" fill="white"/>
<path d="M11.8838 12.3965C11.8955 11.6992 11.9746 11.1484 12.1211 10.7441C12.2676 10.3398 12.5664 9.8916 13.0176 9.39941L14.1689 8.21289C14.6611 7.65625 14.9072 7.05859 14.9072 6.41992C14.9072 5.80469 14.7461 5.32422 14.4238 4.97852C14.1016 4.62695 13.6328 4.45117 13.0176 4.45117C12.4199 4.45117 11.9395 4.60938 11.5762 4.92578C11.2129 5.24219 11.0312 5.66699 11.0312 6.2002H9.40527C9.41699 5.25098 9.75391 4.48633 10.416 3.90625C11.084 3.32031 11.9512 3.02734 13.0176 3.02734C14.125 3.02734 14.9863 3.32617 15.6016 3.92383C16.2227 4.51562 16.5332 5.33008 16.5332 6.36719C16.5332 7.39258 16.0586 8.40332 15.1094 9.39941L14.1514 10.3486C13.7236 10.8232 13.5098 11.5059 13.5098 12.3965H11.8838ZM11.8135 15.1826C11.8135 14.9189 11.8926 14.6992 12.0508 14.5234C12.2148 14.3418 12.4551 14.251 12.7715 14.251C13.0879 14.251 13.3281 14.3418 13.4922 14.5234C13.6562 14.6992 13.7383 14.9189 13.7383 15.1826C13.7383 15.4463 13.6562 15.666 13.4922 15.8418C13.3281 16.0117 13.0879 16.0967 12.7715 16.0967C12.4551 16.0967 12.2148 16.0117 12.0508 15.8418C11.8926 15.666 11.8135 15.4463 11.8135 15.1826Z" fill="#2196F3"/>
</svg>
